<svg width="47" height="65" viewBox="0 0 47 65" fill="none" xmlns="http://www.w3.org/2000/svg">
<g filter="url(#filter0_d_274_573)">
<path d="M37.5004 13.1318C42.6976 16.2358 42.6976 23.7642 37.5004 26.8682L17.6021 38.7527C12.2696 41.9375 5.5 38.0956 5.5 31.8844L5.5 8.11556C5.5 1.90441 12.2697 -1.93752 17.6021 1.24733L37.5004 13.1318Z" fill="url(#paint0_linear_274_573)"/>
<path d="M37.244 13.561C42.1164 16.4711 42.1164 23.5289 37.244 26.439L17.3457 38.3234C12.3465 41.3092 6 37.7074 6 31.8844L6 8.11556C6 2.29261 12.3466 -1.3092 17.3457 1.6766L37.244 13.561Z" stroke="#6B2242"/>
</g>
<defs>
<filter id="filter0_d_274_573" x="0.5" y="0.103264" width="45.8984" height="64.7935" filterUnits="userSpaceOnUse" color-interpolation-filters="sRGB">
<feFlood flood-opacity="0" result="BackgroundImageFix"/>
<feColorMatrix in="SourceAlpha" type="matrix" values="0 0 0 0 0 0 0 0 0 0 0 0 0 0 0 0 0 0 127 0" result="hardAlpha"/>
<feOffset dy="20"/>
<feGaussianBlur stdDeviation="2.5"/>
<feComposite in2="hardAlpha" operator="out"/>
<feColorMatrix type="matrix" values="0 0 0 0 0.125192 0 0 0 0 0.125192 0 0 0 0 0.2075 0 0 0 1 0"/>
<feBlend mode="normal" in2="BackgroundImageFix" result="effect1_dropShadow_274_573"/>
<feBlend mode="normal" in="SourceGraphic" in2="effect1_dropShadow_274_573" result="shape"/>
</filter>
<linearGradient id="paint0_linear_274_573" x1="-73.0597" y1="11.0811" x2="129.012" y2="21.2446" gradientUnits="userSpaceOnUse">
<stop offset="0.0559998" stop-color="#54293C"/>
<stop offset="0.62" stop-color="#FA4794"/>
</linearGradient>
</defs>
</svg>
