<svg width="47" height="65" viewBox="0 0 47 65" fill="none" xmlns="http://www.w3.org/2000/svg">
<g filter="url(#filter0_d_274_574)">
<path d="M9.49958 26.8682C4.3024 23.7642 4.30241 16.2358 9.49959 13.1318L29.3979 1.24733C34.7304 -1.93753 41.5 1.90442 41.5 8.11557L41.5 31.8844C41.5 38.0956 34.7303 41.9375 29.3979 38.7527L9.49958 26.8682Z" fill="url(#paint0_linear_274_574)"/>
<path d="M9.75596 26.439C4.88361 23.5289 4.88362 16.4711 9.75598 13.561L29.6543 1.67659C34.6535 -1.30921 41 2.29261 41 8.11557L41 31.8844C41 37.7074 34.6534 41.3092 29.6543 38.3234L9.75596 26.439Z" stroke="#6B2242"/>
</g>
<defs>
<filter id="filter0_d_274_574" x="0.601562" y="0.103256" width="45.8984" height="64.7935" filterUnits="userSpaceOnUse" color-interpolation-filters="sRGB">
<feFlood flood-opacity="0" result="BackgroundImageFix"/>
<feColorMatrix in="SourceAlpha" type="matrix" values="0 0 0 0 0 0 0 0 0 0 0 0 0 0 0 0 0 0 127 0" result="hardAlpha"/>
<feOffset dy="20"/>
<feGaussianBlur stdDeviation="2.5"/>
<feComposite in2="hardAlpha" operator="out"/>
<feColorMatrix type="matrix" values="0 0 0 0 0.125192 0 0 0 0 0.125192 0 0 0 0 0.2075 0 0 0 1 0"/>
<feBlend mode="normal" in2="BackgroundImageFix" result="effect1_dropShadow_274_574"/>
<feBlend mode="normal" in="SourceGraphic" in2="effect1_dropShadow_274_574" result="shape"/>
</filter>
<linearGradient id="paint0_linear_274_574" x1="120.06" y1="28.9189" x2="-82.012" y2="18.7554" gradientUnits="userSpaceOnUse">
<stop offset="0.0559998" stop-color="#54293C"/>
<stop offset="0.62" stop-color="#FA4794"/>
</linearGradient>
</defs>
</svg>
