<svg width="300" height="50" viewBox="0 0 396 54" fill="none" xmlns="http://www.w3.org/2000/svg">
<g filter="url(#filter0_d_478_302)">
<path d="M31.9 7.465V37.435C31.9 38.485 31.735 39.175 31.405 39.505C31.105 39.835 30.445 40 29.425 40H23.035C21.265 40 20.095 39.73 19.525 39.19C18.985 38.65 18.505 37.255 18.085 35.005C17.245 30.565 16.03 23.395 14.44 13.495C14.32 12.745 14.14 12.265 13.9 12.055C13.69 11.845 13.315 11.725 12.775 11.695H7.24V7.465H17.005C17.755 7.465 18.355 7.555 18.805 7.735C19.255 7.915 19.615 8.305 19.885 8.905C20.185 9.475 20.38 10.03 20.47 10.57C20.59 11.11 20.71 11.74 20.83 12.46C20.98 13.33 21.19 14.605 21.46 16.285C21.97 19.675 22.765 24.46 23.845 30.64C24.265 33.28 24.55 34.765 24.7 35.095C24.88 35.395 25.18 35.575 25.6 35.635V9.265C25.6 8.725 25.75 8.29 26.05 7.96C26.35 7.63 26.74 7.465 27.22 7.465H31.9ZM7.24 13.27H11.92C12.4 13.27 12.79 13.435 13.09 13.765C13.39 14.095 13.54 14.53 13.54 15.07V37.435C13.54 38.455 13.405 39.145 13.135 39.505C12.865 39.835 12.325 40 11.515 40H7.24V13.27ZM46.0922 7.465V34.42C46.0922 34.87 46.1972 35.2 46.4072 35.41C46.6472 35.62 47.1572 35.725 47.9372 35.725H51.2672V40H45.5522C44.3522 40 43.3472 39.91 42.5372 39.73C41.7572 39.55 41.0672 39.19 40.4672 38.65C39.8972 38.08 39.4472 37.45 39.1172 36.76C38.8172 36.07 38.5772 35.035 38.3972 33.655C38.1272 31.585 37.9922 28.81 37.9922 25.33C37.9922 21.82 38.0072 19.345 38.0372 17.905C38.0972 16.465 38.2172 15.07 38.3972 13.72C38.5772 12.34 38.8172 11.32 39.1172 10.66C39.4472 9.97 39.8972 9.355 40.4672 8.815C41.0672 8.245 41.7572 7.885 42.5372 7.735C43.3472 7.555 44.3522 7.465 45.5522 7.465H46.0922ZM47.8922 7.51H53.6072C54.8072 7.51 55.7972 7.6 56.5772 7.78C57.3872 7.96 58.0772 8.335 58.6472 8.905C59.2472 9.445 59.6972 10.06 59.9972 10.75C60.3272 11.44 60.5822 12.475 60.7622 13.855C61.0322 15.925 61.1672 18.715 61.1672 22.225C61.1672 25.705 61.1372 28.165 61.0772 29.605C61.0472 31.045 60.9422 32.455 60.7622 33.835C60.5822 35.185 60.3272 36.205 59.9972 36.895C59.6972 37.555 59.2472 38.17 58.6472 38.74C58.0772 39.28 57.3872 39.64 56.5772 39.82C55.7972 39.97 54.8072 40.045 53.6072 40.045H53.0672V13.09C53.0672 12.64 52.9472 12.31 52.7072 12.1C52.4972 11.89 52.0022 11.785 51.2222 11.785H47.8922V7.51ZM83.6528 40H78.9278C77.9078 40 77.2328 39.835 76.9028 39.505C76.6028 39.175 76.4528 38.485 76.4528 37.435V9.265C76.4528 8.725 76.6028 8.29 76.9028 7.96C77.2028 7.63 77.5928 7.465 78.0728 7.465H83.6528V40ZM85.4528 7.465H91.1678C92.9078 7.465 94.2728 7.6 95.2628 7.87C96.2828 8.14 97.0478 8.68 97.5578 9.49C98.0678 10.27 98.3828 11.155 98.5028 12.145C98.6528 13.105 98.7278 14.47 98.7278 16.24C98.7278 18.01 98.6528 19.36 98.5028 20.29C98.3828 21.22 98.0678 22.09 97.5578 22.9C97.0778 23.71 96.3128 24.28 95.2628 24.61C94.2428 24.94 92.8778 25.105 91.1678 25.105H85.4528V20.83H88.7828C89.5628 20.83 90.0578 20.725 90.2678 20.515C90.5078 20.305 90.6278 19.975 90.6278 19.525V13.09C90.6278 12.61 90.5078 12.265 90.2678 12.055C90.0578 11.845 89.5628 11.74 88.7828 11.74H85.4528V7.465ZM89.7728 26.5H95.3528C96.2528 26.5 96.8978 26.755 97.2878 27.265C97.6778 27.745 97.8728 28.54 97.8728 29.65V40H91.3928C90.9128 40 90.5228 39.835 90.2228 39.505C89.9228 39.175 89.7728 38.74 89.7728 38.2V26.5ZM112.054 7.465V34.42C112.054 34.87 112.159 35.2 112.369 35.41C112.609 35.62 113.119 35.725 113.899 35.725H117.229V40H111.514C110.314 40 109.309 39.91 108.499 39.73C107.719 39.55 107.029 39.19 106.429 38.65C105.859 38.08 105.409 37.45 105.079 36.76C104.779 36.07 104.539 35.035 104.359 33.655C104.089 31.585 103.954 28.81 103.954 25.33C103.954 21.82 103.969 19.345 103.999 17.905C104.059 16.465 104.179 15.07 104.359 13.72C104.539 12.34 104.779 11.32 105.079 10.66C105.409 9.97 105.859 9.355 106.429 8.815C107.029 8.245 107.719 7.885 108.499 7.735C109.309 7.555 110.314 7.465 111.514 7.465H112.054ZM113.854 7.51H119.569C120.769 7.51 121.759 7.6 122.539 7.78C123.349 7.96 124.039 8.335 124.609 8.905C125.209 9.445 125.659 10.06 125.959 10.75C126.289 11.44 126.544 12.475 126.724 13.855C126.994 15.925 127.129 18.715 127.129 22.225C127.129 25.705 127.099 28.165 127.039 29.605C127.009 31.045 126.904 32.455 126.724 33.835C126.544 35.185 126.289 36.205 125.959 36.895C125.659 37.555 125.209 38.17 124.609 38.74C124.039 39.28 123.349 39.64 122.539 39.82C121.759 39.97 120.769 40.045 119.569 40.045H119.029V13.09C119.029 12.64 118.909 12.31 118.669 12.1C118.459 11.89 117.964 11.785 117.184 11.785H113.854V7.51ZM140.882 7.465V34.42C140.882 34.87 140.987 35.2 141.197 35.41C141.437 35.62 141.947 35.725 142.727 35.725H146.057V40H140.342C139.142 40 138.137 39.91 137.327 39.73C136.547 39.55 135.857 39.19 135.257 38.65C134.687 38.08 134.237 37.45 133.907 36.76C133.607 36.07 133.367 35.035 133.187 33.655C132.917 31.585 132.782 28.81 132.782 25.33C132.782 21.82 132.797 19.345 132.827 17.905C132.887 16.465 133.007 15.07 133.187 13.72C133.367 12.34 133.607 11.32 133.907 10.66C134.237 9.97 134.687 9.355 135.257 8.815C135.857 8.245 136.547 7.885 137.327 7.735C138.137 7.555 139.142 7.465 140.342 7.465H140.882ZM142.682 7.51H148.397C149.597 7.51 150.587 7.6 151.367 7.78C152.177 7.96 152.867 8.335 153.437 8.905C154.037 9.445 154.487 10.06 154.787 10.75C155.117 11.44 155.372 12.475 155.552 13.855C155.822 15.925 155.957 18.715 155.957 22.225C155.957 25.705 155.927 28.165 155.867 29.605C155.837 31.045 155.732 32.455 155.552 33.835C155.372 35.185 155.117 36.205 154.787 36.895C154.487 37.555 154.037 38.17 153.437 38.74C152.867 39.28 152.177 39.64 151.367 39.82C150.587 39.97 149.597 40.045 148.397 40.045H147.857V13.09C147.857 12.64 147.737 12.31 147.497 12.1C147.287 11.89 146.792 11.785 146.012 11.785H142.682V7.51ZM185.505 7.465H192.255C194.445 7.465 196.095 7.84 197.205 8.59C198.345 9.34 198.915 10.645 198.915 12.505V37.435C198.915 38.485 198.75 39.175 198.42 39.505C198.12 39.835 197.46 40 196.44 40H191.715V13.045C191.715 12.565 191.64 12.235 191.49 12.055C191.37 11.845 191.04 11.74 190.5 11.74H185.505V7.465ZM169.17 40H164.445C163.425 40 162.75 39.835 162.42 39.505C162.12 39.175 161.97 38.485 161.97 37.435V9.265C161.97 8.725 162.12 8.29 162.42 7.96C162.72 7.63 163.11 7.465 163.59 7.465H169.17V40ZM171.015 7.465H182.535C183.015 7.465 183.405 7.63 183.705 7.96C184.005 8.29 184.155 8.725 184.155 9.265V36.715H179.475C178.575 36.715 177.93 36.475 177.54 35.995C177.15 35.485 176.955 34.675 176.955 33.565V13.045C176.955 12.565 176.88 12.235 176.73 12.055C176.61 11.845 176.28 11.74 175.74 11.74H171.015V7.465ZM221.729 40H217.004C215.984 40 215.309 39.835 214.979 39.505C214.679 39.175 214.529 38.5 214.529 37.48V10.075C214.529 9.025 214.694 8.335 215.024 8.005C215.354 7.645 216.014 7.465 217.004 7.465H221.729V40ZM232.934 20.02V22.72C232.934 23.8 232.829 24.49 232.619 24.79C232.409 25.06 231.809 25.195 230.819 25.195H223.529V20.02H232.934ZM234.734 7.465V11.335C234.734 12.355 234.569 13.03 234.239 13.36C233.909 13.66 233.219 13.81 232.169 13.81H223.529V7.465H234.734ZM246.703 7.465V34.42C246.703 34.87 246.808 35.2 247.018 35.41C247.258 35.62 247.768 35.725 248.548 35.725H251.878V40H246.163C244.963 40 243.958 39.91 243.148 39.73C242.368 39.55 241.678 39.19 241.078 38.65C240.508 38.08 240.058 37.45 239.728 36.76C239.428 36.07 239.188 35.035 239.008 33.655C238.738 31.585 238.603 28.81 238.603 25.33C238.603 21.82 238.618 19.345 238.648 17.905C238.708 16.465 238.828 15.07 239.008 13.72C239.188 12.34 239.428 11.32 239.728 10.66C240.058 9.97 240.508 9.355 241.078 8.815C241.678 8.245 242.368 7.885 243.148 7.735C243.958 7.555 244.963 7.465 246.163 7.465H246.703ZM248.503 7.51H254.218C255.418 7.51 256.408 7.6 257.188 7.78C257.998 7.96 258.688 8.335 259.258 8.905C259.858 9.445 260.308 10.06 260.608 10.75C260.938 11.44 261.193 12.475 261.373 13.855C261.643 15.925 261.778 18.715 261.778 22.225C261.778 25.705 261.748 28.165 261.688 29.605C261.658 31.045 261.553 32.455 261.373 33.835C261.193 35.185 260.938 36.205 260.608 36.895C260.308 37.555 259.858 38.17 259.258 38.74C258.688 39.28 257.998 39.64 257.188 39.82C256.408 39.97 255.418 40.045 254.218 40.045H253.678V13.09C253.678 12.64 253.558 12.31 253.318 12.1C253.108 11.89 252.613 11.785 251.833 11.785H248.503V7.51ZM274.991 40H270.266C269.246 40 268.571 39.835 268.241 39.505C267.941 39.175 267.791 38.485 267.791 37.435V9.265C267.791 8.725 267.941 8.29 268.241 7.96C268.541 7.63 268.931 7.465 269.411 7.465H274.991V40ZM276.791 7.465H282.506C284.246 7.465 285.611 7.6 286.601 7.87C287.621 8.14 288.386 8.68 288.896 9.49C289.406 10.27 289.721 11.155 289.841 12.145C289.991 13.105 290.066 14.47 290.066 16.24C290.066 18.01 289.991 19.36 289.841 20.29C289.721 21.22 289.406 22.09 288.896 22.9C288.416 23.71 287.651 24.28 286.601 24.61C285.581 24.94 284.216 25.105 282.506 25.105H276.791V20.83H280.121C280.901 20.83 281.396 20.725 281.606 20.515C281.846 20.305 281.966 19.975 281.966 19.525V13.09C281.966 12.61 281.846 12.265 281.606 12.055C281.396 11.845 280.901 11.74 280.121 11.74H276.791V7.465ZM281.111 26.5H286.691C287.591 26.5 288.236 26.755 288.626 27.265C289.016 27.745 289.211 28.54 289.211 29.65V40H282.731C282.251 40 281.861 39.835 281.561 39.505C281.261 39.175 281.111 38.74 281.111 38.2V26.5ZM310.338 7.465V20.29C310.338 20.77 310.413 21.115 310.563 21.325C310.713 21.505 311.058 21.595 311.598 21.595H313.218V25.87H306.198C305.058 25.87 304.263 25.615 303.813 25.105C303.363 24.565 303.138 23.74 303.138 22.63V9.58C303.138 8.17 303.963 7.465 305.613 7.465H310.338ZM317.673 40H312.048C311.028 40 310.353 39.835 310.023 39.505C309.723 39.175 309.573 38.485 309.573 37.435V30.235C309.573 29.185 309.723 28.495 310.023 28.165C310.353 27.835 311.028 27.67 312.048 27.67H317.673V40ZM317.313 7.465H322.038C322.938 7.465 323.568 7.645 323.928 8.005C324.318 8.365 324.513 9.04 324.513 10.03V22.72C324.513 24.82 323.643 25.87 321.903 25.87H315.018V21.595H316.098C316.638 21.595 316.968 21.49 317.088 21.28C317.238 21.07 317.313 20.74 317.313 20.29V7.465ZM337.362 7.465V34.42C337.362 34.87 337.467 35.2 337.677 35.41C337.917 35.62 338.427 35.725 339.207 35.725H342.537V40H336.822C335.622 40 334.617 39.91 333.807 39.73C333.027 39.55 332.337 39.19 331.737 38.65C331.167 38.08 330.717 37.45 330.387 36.76C330.087 36.07 329.847 35.035 329.667 33.655C329.397 31.585 329.262 28.81 329.262 25.33C329.262 21.82 329.277 19.345 329.307 17.905C329.367 16.465 329.487 15.07 329.667 13.72C329.847 12.34 330.087 11.32 330.387 10.66C330.717 9.97 331.167 9.355 331.737 8.815C332.337 8.245 333.027 7.885 333.807 7.735C334.617 7.555 335.622 7.465 336.822 7.465H337.362ZM339.162 7.51H344.877C346.077 7.51 347.067 7.6 347.847 7.78C348.657 7.96 349.347 8.335 349.917 8.905C350.517 9.445 350.967 10.06 351.267 10.75C351.597 11.44 351.852 12.475 352.032 13.855C352.302 15.925 352.437 18.715 352.437 22.225C352.437 25.705 352.407 28.165 352.347 29.605C352.317 31.045 352.212 32.455 352.032 33.835C351.852 35.185 351.597 36.205 351.267 36.895C350.967 37.555 350.517 38.17 349.917 38.74C349.347 39.28 348.657 39.64 347.847 39.82C347.067 39.97 346.077 40.045 344.877 40.045H344.337V13.09C344.337 12.64 344.217 12.31 343.977 12.1C343.767 11.89 343.272 11.785 342.492 11.785H339.162V7.51ZM365.605 7.465V34.42C365.605 34.9 365.665 35.245 365.785 35.455C365.935 35.635 366.28 35.725 366.82 35.725H371.68V40H365.065C362.875 40 361.21 39.625 360.07 38.875C358.96 38.125 358.405 36.82 358.405 34.96V10.03C358.405 8.98 358.555 8.29 358.855 7.96C359.185 7.63 359.86 7.465 360.88 7.465H365.605ZM373.03 7.465H377.755C378.775 7.465 379.435 7.63 379.735 7.96C380.065 8.29 380.23 8.98 380.23 10.03V34.42C380.23 34.9 380.29 35.245 380.41 35.455C380.56 35.635 380.905 35.725 381.445 35.725H382.255V40H379.69C377.5 40 375.835 39.625 374.695 38.875C373.585 38.125 373.03 36.82 373.03 34.96V7.465Z" fill="url(#paint0_radial_478_302)"/>
</g>
<defs>
<filter id="filter0_d_478_302" x="0.239998" y="0.464996" width="395.015" height="52.58" filterUnits="userSpaceOnUse" color-interpolation-filters="sRGB">
<feFlood flood-opacity="0" result="BackgroundImageFix"/>
<feColorMatrix in="SourceAlpha" type="matrix" values="0 0 0 0 0 0 0 0 0 0 0 0 0 0 0 0 0 0 127 0" result="hardAlpha"/>
<feOffset dx="3" dy="3"/>
<feGaussianBlur stdDeviation="5"/>
<feComposite in2="hardAlpha" operator="out"/>
<feColorMatrix type="matrix" values="0 0 0 0 0.0636857 0 0 0 0 0.0636857 0 0 0 0 0.140325 0 0 0 1 0"/>
<feBlend mode="normal" in2="BackgroundImageFix" result="effect1_dropShadow_478_302"/>
<feBlend mode="normal" in="SourceGraphic" in2="effect1_dropShadow_478_302" result="shape"/>
</filter>
<radialGradient id="paint0_radial_478_302" cx="0" cy="0" r="1" gradientUnits="userSpaceOnUse" gradientTransform="translate(194 22.5) rotate(-0.173098) scale(165.501 165.501)">
<stop stop-color="#F1CEDD"/>
<stop offset="0.346154" stop-color="#6B2242"/>
<stop offset="0.668269" stop-color="#F1CEDD"/>
<stop offset="0.923077" stop-color="#6B2242"/>
</radialGradient>
</defs>
</svg>
